<?xml version="1.0" encoding="UTF-8"?>
<svg xmlns="http://www.w3.org/2000/svg" xmlns:xlink="http://www.w3.org/1999/xlink" width="48px" height="30px" viewBox="0 0 47 30" version="1.1">
<g id="surface1">
<path style=" stroke:none;fill-rule:nonzero;fill:rgb(11.372549%,11.372549%,10.588235%);fill-opacity:1;" d="M 32.890625 7.894531 L 32.890625 26.84375 C 32.890625 27.679688 32.558594 28.480469 31.96875 29.074219 C 31.382812 29.664062 30.589844 30 29.757812 30 L 7.851562 30 C 5.777344 29.996094 3.789062 29.164062 2.324219 27.683594 C 0.855469 26.203125 0.03125 24.199219 0.03125 22.105469 L 0.03125 3.15625 C 0.03125 2.320312 0.359375 1.519531 0.945312 0.925781 C 1.535156 0.335938 2.328125 0 3.160156 0 L 25.066406 0 C 27.140625 0.00390625 29.128906 0.835938 30.59375 2.316406 C 32.0625 3.796875 32.886719 5.800781 32.890625 7.894531 Z M 46.191406 4.160156 C 45.953125 4.019531 45.683594 3.949219 45.410156 3.949219 C 45.136719 3.949219 44.867188 4.019531 44.628906 4.15625 L 36.804688 8.667969 C 36.566406 8.804688 36.367188 9.003906 36.230469 9.246094 C 36.089844 9.488281 36.015625 9.757812 36.015625 10.039062 L 36.015625 19.960938 C 36.015625 20.242188 36.089844 20.515625 36.230469 20.753906 C 36.367188 20.996094 36.566406 21.195312 36.804688 21.332031 L 44.628906 25.84375 C 44.867188 25.980469 45.136719 26.054688 45.410156 26.050781 C 45.683594 26.050781 45.953125 25.976562 46.191406 25.839844 C 46.429688 25.699219 46.625 25.5 46.761719 25.261719 C 46.898438 25.019531 46.96875 24.75 46.96875 24.472656 L 46.96875 5.527344 C 46.96875 5.25 46.898438 4.976562 46.761719 4.738281 C 46.625 4.5 46.429688 4.300781 46.191406 4.160156 Z M 46.191406 4.160156 "/>
</g>
</svg>
