<?xml version="1.0" encoding="UTF-8"?>
<svg xmlns="http://www.w3.org/2000/svg" xmlns:xlink="http://www.w3.org/1999/xlink" width="48px" height="48px" viewBox="0 0 48 48" version="1.1">
<g id="surface1">
<path style=" stroke:none;fill-rule:nonzero;fill:rgb(18.823529%,47.058824%,72.54902%);fill-opacity:1;" d="M 1.542969 1.429688 L 14.742188 1.429688 L 14.773438 1.464844 L 14.773438 14.601562 L 14.742188 14.632812 L 14.394531 14.664062 L 12.644531 14.695312 L 2.148438 14.695312 L 1.542969 14.664062 L 1.511719 14.632812 L 1.511719 1.464844 Z M 1.542969 1.429688 "/>
<path style=" stroke:none;fill-rule:nonzero;fill:rgb(18.823529%,47.058824%,72.54902%);fill-opacity:1;" d="M 33.449219 17.335938 L 46.617188 17.335938 L 46.648438 17.496094 L 46.679688 17.941406 L 46.679688 18.578125 L 46.710938 19.753906 L 46.710938 29.742188 L 46.679688 30.535156 L 46.648438 30.570312 L 33.449219 30.570312 L 33.414062 30.535156 L 33.414062 17.367188 Z M 33.449219 17.335938 "/>
<path style=" stroke:none;fill-rule:nonzero;fill:rgb(18.823529%,47.058824%,72.54902%);fill-opacity:1;" d="M 33.449219 33.335938 L 46.617188 33.335938 L 46.648438 33.496094 L 46.679688 34.066406 L 46.679688 34.894531 L 46.710938 36.359375 L 46.710938 45.390625 L 46.679688 46.570312 L 33.414062 46.570312 L 33.414062 33.367188 Z M 33.449219 33.335938 "/>
<path style=" stroke:none;fill-rule:nonzero;fill:rgb(18.823529%,47.058824%,72.54902%);fill-opacity:1;" d="M 21.964844 33.304688 L 28.359375 33.304688 L 30.488281 33.335938 L 30.648438 33.367188 L 30.648438 46.601562 L 17.449219 46.601562 L 17.414062 46.570312 L 17.414062 33.429688 L 17.542969 33.367188 L 18.65625 33.335938 Z M 21.964844 33.304688 "/>
<path style=" stroke:none;fill-rule:nonzero;fill:rgb(18.823529%,47.058824%,72.54902%);fill-opacity:1;" d="M 1.511719 17.335938 L 14.710938 17.335938 L 14.742188 17.527344 L 14.742188 18.035156 L 14.773438 19.085938 L 14.773438 30.089844 L 14.742188 30.570312 L 1.511719 30.570312 Z M 1.511719 17.335938 "/>
<path style=" stroke:none;fill-rule:nonzero;fill:rgb(18.823529%,47.058824%,72.54902%);fill-opacity:1;" d="M 17.449219 1.429688 L 30.648438 1.429688 L 30.648438 14.632812 L 30.328125 14.664062 L 28.644531 14.695312 L 18.082031 14.695312 L 17.449219 14.664062 L 17.414062 14.632812 L 17.414062 1.464844 Z M 17.449219 1.429688 "/>
<path style=" stroke:none;fill-rule:nonzero;fill:rgb(97.254902%,63.529412%,10.196078%);fill-opacity:1;" d="M 1.542969 33.367188 L 14.742188 33.367188 L 14.773438 33.398438 L 14.773438 46.570312 L 1.542969 46.570312 L 1.511719 46.058594 L 1.511719 45.457031 L 1.480469 44.375 L 1.480469 34.066406 L 1.511719 33.398438 Z M 1.542969 33.367188 "/>
<path style=" stroke:none;fill-rule:nonzero;fill:rgb(18.823529%,47.058824%,72.54902%);fill-opacity:1;" d="M 17.449219 17.335938 L 30.648438 17.335938 L 30.648438 30.503906 L 30.617188 30.535156 L 29.726562 30.570312 L 27.339844 30.601562 L 18.847656 30.601562 L 17.449219 30.570312 L 17.414062 30.535156 L 17.414062 17.367188 Z M 17.449219 17.335938 "/>
<path style=" stroke:none;fill-rule:nonzero;fill:rgb(26.666667%,70.588235%,28.627451%);fill-opacity:1;" d="M 37.359375 1.398438 L 44.992188 1.398438 L 46.585938 1.429688 L 46.679688 1.464844 L 46.679688 14.632812 L 46.648438 14.664062 L 33.449219 14.664062 L 33.449219 1.496094 L 33.511719 1.464844 L 34.527344 1.429688 Z M 37.359375 1.398438 "/>
</g>
</svg>
