<?xml version="1.0" encoding="utf-8"?>
<!-- Generator: Adobe Illustrator 26.0.3, SVG Export Plug-In . SVG Version: 6.00 Build 0)  -->
<svg version="1.0" id="Layer_1" xmlns="http://www.w3.org/2000/svg" xmlns:xlink="http://www.w3.org/1999/xlink" x="0px" y="0px"
	 viewBox="0 0 909 649.8" style="enable-background:new 0 0 909 649.8;" xml:space="preserve">
<style type="text/css">
	.st0{fill:#020202;}
	.st1{fill:#3078BB;}
	.st2{fill:#44B449;}
	.st3{fill:#F8A21A;}
</style>
<path class="st0" d="M575,333.8c3.3-9.9,6.6-19.3,9.8-28.8c4.7-13.9,9.3-27.8,13.9-41.7c2.6-7.8,5.2-15.6,7.8-23.4
	c0.2-1,1.1-1.6,2.1-1.5c7.4,0,14.9,0,22.3,0c1.5,0,1.9,0.4,2.1,1.7c0.5,3.7,1,7.4,1.9,11.1c0.3,1.4,0.4,2.9,0.7,4.3
	c0.8,4.8,1.5,9.7,2.6,14.5c0.8,3.1,0.9,6.4,1.4,9.6s1.2,6.3,1.8,9.5c0.3,1.5,0.5,3.1,0.7,4.6c0.7,5,1.7,10.1,2.5,15.1
	c0.5,2.9,0.9,5.8,1.5,8.7c0.9,4.6,1.5,9.2,2.4,13.8c0.5,2.8,0.9,5.8,1.4,8.7c0.6,3.6,1.3,7.2,1.8,10.8c0.5,3.1,1.1,6.2,1.5,9.3
	s1.2,6.1,1.7,9.2c0.4,2.2,0.6,4.3,1,6.7c-0.8,0.1-1.5,0.2-2.2,0.2h-21.1c-2.4,0-2.4-0.2-2.7-2.4c-0.5-3.4-1.2-6.8-1.8-10.2
	c-0.5-3-0.9-6-1.4-9c-0.6-3.3-1.2-6.5-1.8-9.8c-0.3-1.5-0.5-3.1-0.7-4.6c-0.7-4.9-1.4-9.7-2.5-14.5c-0.8-3.1-0.8-6.5-1.4-9.6
	c-0.6-3.1-0.8-6.4-1.8-9.5c-0.4-1.5-0.6-3.1-0.8-4.6c-0.5-3.1-0.9-6.2-1.4-9.3c-0.1-0.5-0.5-0.9-1-1.5c-9.5,28.4-19,56.5-28.5,84.9
	h-23.4c-1.9-5.6-3.9-11.3-5.8-17c-1.9-5.7-3.5-11.2-5.4-16.8c-1.8-5.6-3.8-11.4-5.8-17.1s-4-11.2-5.8-16.8
	c-1.8-5.6-3.5-11.5-6.3-16.9c-4.8,28.2-9.7,56.4-14.6,84.6h-25.7c0.1-1.1,0.2-2.2,0.4-3.3c0.7-2.8,1-5.8,1.6-8.6
	c0.8-4.5,1.2-9.1,2.5-13.5c0.3-1.5,0.6-3.1,0.8-4.6c0.5-3.5,1.2-7,1.8-10.5c0.5-3.2,1.2-6.4,1.5-9.6c0.4-3,1.1-5.9,1.7-8.9
	c0.3-1.6,0.6-3.3,0.8-5c0.6-4.7,1.7-9.4,2.5-14.1c0.5-3.2,1.1-6.4,1.5-9.6c0.3-2.8,1.2-5.5,1.4-8.3c0.2-1.7,0.8-3.4,1.1-5.2
	c0.6-4.9,1.8-9.6,2.5-14.5c0.5-3,1-6,1.5-9c0.6-3.9,1.3-7.8,1.9-11.7c0.1-0.8,0.8-1.3,1.5-1.3h22.3c1.9,0,1.9-0.3,2.7,2.2
	c4.7,14.1,9.4,28.3,14.2,42.4c4.9,14.5,9.8,29.1,14.7,43.6C573.4,328.8,574.1,331.1,575,333.8z"/>
<path class="st1" d="M95.3,198.2h74.2v74c-2.4,0.5-66.5,0.6-74.2,0.2L95.3,198.2z"/>
<path class="st1" d="M184.6,198.2h74.2v74c-2.4,0.5-66.8,0.6-74.2,0.2V198.2z"/>
<path class="st2" d="M348.8,272.5h-74.2v-74c2.4-0.5,65.6-0.7,74.2-0.2V272.5z"/>
<path class="st1" d="M95.2,361.8v-74.2h74c0.4,2.4,0.6,67.5,0.2,74.2L95.2,361.8z"/>
<path class="st1" d="M184.6,287.5h74.2v74c-2.4,0.5-64.6,0.7-74.2,0.2V287.5z"/>
<path class="st1" d="M274.5,361.8v-74.2h74c0.5,2.4,0.7,64.5,0.2,74.2L274.5,361.8z"/>
<path class="st3" d="M169.5,377.5v74.2h-74c-0.5-2.4-0.7-63.9-0.2-74.2L169.5,377.5z"/>
<path class="st1" d="M258.8,451.8h-74.2v-74c2.4-0.5,66-0.7,74.2-0.2V451.8z"/>
<path class="st1" d="M274.5,451.7v-74.2h74c0.5,2.4,0.6,66.1,0.2,74.2L274.5,451.7z"/>
<path class="st0" d="M814,376h-30l-23.9-33l-23.8,33h-29c0.5-2.3,2.2-3.7,3.4-5.3c2.9-4.2,5.9-8.2,8.9-12.3s6-8.6,9.1-12.8
	c2.3-3.2,4.7-6.5,7.1-9.7c2.8-3.9,5.6-7.9,8.5-11.7c0.8-0.7,0.8-2,0.1-2.7c0,0,0,0,0,0c-3.5-4.7-7-9.5-10.4-14.2
	c-3-4.2-6-8.4-9-12.5c-3.2-4.4-6.5-8.8-9.7-13.3c-1.5-2.1-3-4.3-4.6-6.6h29.8l19.8,27.2c6.7-9.2,13.3-18.3,19.8-27.3h28.9
	c-0.7,2-5.4,8.7-10.8,15.7c-4,5.2-7.6,10.6-11.4,15.9l-11.4,15.8c0.2,2.1,2,3.5,3.2,5.2c3.4,4.9,7,9.7,10.5,14.5
	c2.7,3.8,5.4,7.5,8.1,11.3c2.4,3.3,4.9,6.6,7.3,9.9C807.5,367,810.6,371.3,814,376z"/>
<path class="st0" d="M409.5,274.7c8.3,19.6,16.7,39.2,25.3,59.3c4.7-10.1,8.6-20.1,12.9-29.9s8.4-19.6,12.5-29.5H486
	c0.5,1.4-0.5,2.6-1,3.7c-2.9,6.9-5.9,13.7-8.8,20.6c-3.5,8.2-6.9,16.4-10.4,24.6c-2.8,6.5-5.6,12.9-8.4,19.4l-9.8,22.8
	c-1.5,3.4-2.9,6.9-4.4,10.3h-16.5c-0.5-0.7-1-1.5-1.4-2.2c-2.2-5.3-4.4-10.7-6.6-16.1c-2.1-4.9-4.3-9.7-6.4-14.5
	c-2.3-5.3-4.4-10.7-6.7-16c-2-4.8-4.2-9.5-6.2-14.2c-3.4-7.9-6.8-15.8-10.1-23.7c-2-4.8-4-9.5-5.9-14.4c0,0,0-0.2,0-0.2
	C392,274.7,400.6,274.7,409.5,274.7z"/>
<path class="st0" d="M696.4,274.7V376h-25.6V274.7H696.4z"/>
<path class="st0" d="M667.4,248.9c-0.4-8.9,7.5-16.5,16.5-16.5c8.3,0,16.7,7.6,16.4,17.1c-0.1,9.1-7.5,16.4-16.6,16.5
	C674.4,265.8,667.1,258.1,667.4,248.9z"/>
</svg>
